# xmcd
#
# Track frame offsets:
#	150
#	16661
#	34307
#	46909
#	58364
#	74972
#	88783
#	105912
#	119427
#	141438
#	160699
#	183480
#
# Disc length: 2640 seconds
#
# Revision: 0
# Processed by: cddbd v1.5.2PL0 Copyright (c) Steve Scherf et al.
# Submitted via: audiograbber 1.83.01
#
DISCID=ab0a4e0c
DTITLE=Reverend and The Lady - Rust and Lust
DYEAR=2015
DGENRE=Blues
TTITLE0=Monday Morning Blues
TTITLE1=Send Me The 'Lectric Chair
TTITLE2=Honey It Must Be Love
TTITLE3=Katie Cruel
TTITLE4=House Of The Rising Sun
TTITLE5=Hesitation Blues
TTITLE6=It Ain't Nobody's Business If I Do
TTITLE7=I'm Going To Froggy Bottom
TTITLE8=Statesboro Blues
TTITLE9=Blue Spirit Blues
TTITLE10=(I Heard That) Lonesome Whistle
TTITLE11=Hoodoo Hoodoo
EXTD=
EXTT0=
EXTT1=
EXTT2=
EXTT3=
EXTT4=
EXTT5=
EXTT6=
EXTT7=
EXTT8=
EXTT9=
EXTT10=
EXTT11=
PLAYORDER=
